<svg width="78" height="78" viewBox="0 0 78 78" fill="none" xmlns="http://www.w3.org/2000/svg">
<path d="M77.75 38.9267C77.7895 60.2767 60.3781 77.7348 39.0281 77.7498C29.807 77.7564 21.337 74.542 14.6809 69.17C12.9502 67.7731 12.8208 65.1792 14.3936 63.6064L16.1541 61.8459C17.4992 60.5008 19.6467 60.3536 21.137 61.5359C26.0409 65.4273 32.247 67.75 39 67.75C54.8914 67.75 67.75 54.8889 67.75 39C67.75 23.1086 54.8889 10.25 39 10.25C31.3728 10.25 24.4455 13.2139 19.3019 18.0519L27.2322 25.9822C28.8072 27.5572 27.6917 30.25 25.4645 30.25H2.75C1.36922 30.25 0.25 29.1308 0.25 27.75V5.03547C0.25 2.80828 2.94281 1.69281 4.51781 3.26766L12.2322 10.982C19.1889 4.33375 28.6175 0.25 39 0.25C60.3766 0.25 77.7105 17.5594 77.75 38.9267ZM49.4825 51.2367L51.0173 49.2633C52.2889 47.6284 51.9944 45.2723 50.3595 44.0009L44 39.0545V22.75C44 20.6789 42.3211 19 40.25 19H37.75C35.6789 19 34 20.6789 34 22.75V43.9455L44.2202 51.8945C45.855 53.1659 48.2109 52.8716 49.4825 51.2367Z" fill="#FFD200"/>
</svg>
