<svg width="100" height="80" viewBox="0 0 100 80" fill="none" xmlns="http://www.w3.org/2000/svg">
<path d="M88.6285 35.2344C87.4305 29.4219 81.8055 25 75 25C72.8646 25 70.8507 25.4688 69.0451 26.25C66.0243 22.4844 61.1285 20 55.5556 20C46.3542 20 38.8889 26.7188 38.8889 35C38.8889 35.0781 38.9236 35.1719 38.9236 35.25C32.5694 36.4062 27.7778 41.4375 27.7778 47.5C27.7778 54.4062 33.9931 60 41.6667 60H86.1111C93.7847 60 100 54.4062 100 47.5C100 41.375 95.1042 36.2969 88.6285 35.2344ZM21.5451 40.6094C15.0521 34.7656 15.0521 25.25 21.5451 19.3906C27.5521 13.9844 37.0139 13.6406 43.5417 18.2344C47.0139 16.2188 51.1111 15 55.5556 15C55.6771 15 55.7812 15.0312 55.9028 15.0312L57.4479 10.8594C58.0382 9.26562 56.3542 7.76562 54.5833 8.29688L41.5104 12.2188L35.3472 1.125C34.5139 -0.375 32.1354 -0.375 31.3021 1.125L25.1389 12.2188L12.066 8.29688C10.2951 7.76562 8.62847 9.28125 9.21875 10.875L13.5764 22.6406L1.25 28.1875C-0.416667 28.9375 -0.416667 31.0781 1.25 31.8281L13.5764 37.375L9.21875 49.1406C8.62847 50.7344 10.3125 52.2344 12.0833 51.7188L22.3611 48.6406C22.3264 48.2656 22.2396 47.9062 22.2396 47.5156C22.2396 45.5625 22.6389 43.6875 23.316 41.9062C22.691 41.4844 22.0833 41.0938 21.5451 40.6094ZM33.6632 31.5469C34.4097 27.7188 36.4062 24.2969 39.2014 21.5469C37.5 20.5781 35.4861 20 33.3333 20C27.2049 20 22.2222 24.4844 22.2222 30C22.2222 32.9219 23.6458 35.5312 25.8854 37.3594C27.8472 34.875 30.5035 32.8438 33.6632 31.5469ZM91.059 65.3281C89.7396 64.6562 88.0382 65.0469 87.2743 66.2656L80.9201 76.2656C80.1562 77.4688 80.625 78.9844 81.9618 79.6719C82.3958 79.8906 82.8646 80 83.3333 80C84.2882 80 85.2257 79.5469 85.7465 78.7344L92.1007 68.7344C92.8472 67.5312 92.3958 66.0156 91.059 65.3281ZM74.3924 65.3281C73.0729 64.6562 71.3715 65.0469 70.6076 66.2656L64.2535 76.2656C63.4896 77.4688 63.9583 78.9844 65.2951 79.6719C65.7292 79.8906 66.1979 80 66.6667 80C67.6215 80 68.559 79.5469 69.0799 78.7344L75.434 68.7344C76.1805 67.5312 75.7292 66.0156 74.3924 65.3281ZM57.7257 65.3281C56.4062 64.6562 54.7049 65.0469 53.941 66.2656L47.5868 76.2656C46.8229 77.4688 47.2917 78.9844 48.6285 79.6719C49.0625 79.8906 49.5312 80 50 80C50.9549 80 51.8924 79.5469 52.4132 78.7344L58.7674 68.7344C59.5139 67.5312 59.0625 66.0156 57.7257 65.3281ZM41.059 65.3281C39.7396 64.6562 38.0382 65.0469 37.2743 66.2656L30.9201 76.2656C30.1562 77.4688 30.625 78.9844 31.9618 79.6719C32.3958 79.8906 32.8646 80 33.3333 80C34.2882 80 35.2257 79.5469 35.7465 78.7344L42.1007 68.7344C42.8472 67.5312 42.3958 66.0156 41.059 65.3281Z" fill="#FFD200"/>
</svg>
