<svg width="100" height="80" viewBox="0 0 100 80" fill="none" xmlns="http://www.w3.org/2000/svg">
<path d="M7.5 0C3.36406 0 0 3.36406 0 7.5V17.5C0 18.8813 1.11875 20 2.5 20H15V7.5C15 3.36406 11.6359 0 7.5 0ZM40 64.4641V55H85V15C85 6.72813 78.2719 0 70 0H17.4359C19.0219 2.09531 20 4.675 20 7.5V65C20 71.0734 25.4141 75.8828 31.6797 74.8625C36.5969 74.0625 40 69.4469 40 64.4641ZM45 60V65C45 73.2703 38.2719 80 30 80H82.5C92.1656 80 100 72.1656 100 62.5C100 61.1188 98.8812 60 97.5 60H45Z" fill="#FFD200"/>
</svg>
