<svg width="100" height="80" viewBox="0 0 100 80" fill="none" xmlns="http://www.w3.org/2000/svg">
<path d="M42.5 45H32.5C31.837 45 31.2011 44.7366 30.7322 44.2678C30.2634 43.7989 30 43.163 30 42.5V32.5C30 31.837 30.2634 31.2011 30.7322 30.7322C31.2011 30.2634 31.837 30 32.5 30H42.5C43.163 30 43.7989 30.2634 44.2678 30.7322C44.7366 31.2011 45 31.837 45 32.5V38.3C46.7359 36.2875 49.2188 35 52 35H73.3969L74.4359 33.8234C74.7744 33.4015 74.9718 32.8839 75 32.3438C74.9646 31.7187 74.7004 31.1286 74.2578 30.6859L65 22.5V7.5C65 6.83696 64.7366 6.20107 64.2678 5.73223C63.7989 5.26339 63.163 5 62.5 5H57.5C56.837 5 56.2011 5.26339 55.7322 5.73223C55.2634 6.20107 55 6.83696 55 7.5V13.6406L41.1719 1.39375C40.3125 0.625 38.6641 0 37.5078 0C36.3516 0 34.7062 0.625 33.8406 1.39375L0.746875 30.6906C0.301614 31.13 0.0354424 31.7192 0 32.3438C0.0269901 32.8788 0.220977 33.3919 0.554688 33.8109L3.49062 37.1406C3.93379 37.5878 4.52754 37.8541 5.15625 37.8875C5.68711 37.8609 6.1968 37.671 6.61562 37.3438L10 34.3563V60C10 61.3261 10.5268 62.5979 11.4645 63.5355C12.4021 64.4732 13.6739 65 15 65H42.5V45ZM98.3328 70H92.5V45C92.5 42.2391 90.4859 40 88 40H52C49.5141 40 47.5 42.2391 47.5 45V70H41.6672C41.225 70 40.801 70.1757 40.4883 70.4883C40.1757 70.801 40 71.225 40 71.6672V73.3328C40.0062 75.0973 40.7091 76.7879 41.9557 78.0366C43.2024 79.2853 44.8918 79.9909 46.6562 80H93.3438C95.1082 79.9909 96.7976 79.2853 98.0443 78.0366C99.2909 76.7879 99.9938 75.0973 100 73.3328V71.6672C100 71.225 99.8243 70.801 99.5117 70.4883C99.199 70.1757 98.775 70 98.3328 70ZM85 70H55V47.5H85V70Z" fill="#FFD200"/>
</svg>
