<svg width="80" height="80" viewBox="0 0 80 80" fill="none" xmlns="http://www.w3.org/2000/svg">
<path d="M80 27.5002C80 42.688 67.6878 55 52.5 55C50.7469 55 49.0328 54.8341 47.3708 54.5205L43.6189 58.7414C43.2671 59.1372 42.8354 59.454 42.3523 59.6709C41.8692 59.8879 41.3457 60 40.8161 60H35V66.25C35 68.3211 33.3211 70 31.25 70H25V76.25C25 78.3211 23.3211 80 21.25 80H3.75C1.67891 80 0 78.3211 0 76.25V64.0533C0 63.0588 0.395156 62.1048 1.09828 61.4016L26.3798 36.12C25.4856 33.4084 25 30.5111 25 27.5C25 12.3122 37.312 0.000156251 52.4998 1.49259e-09C67.7325 -0.000156249 80 12.2673 80 27.5002ZM52.5 20C52.5 24.1422 55.8578 27.5 60 27.5C64.1422 27.5 67.5 24.1422 67.5 20C67.5 15.8578 64.1422 12.5 60 12.5C55.8578 12.5 52.5 15.8578 52.5 20Z" fill="#FFD200"/>
</svg>
