<svg width="100" height="70" viewBox="0 0 100 70" fill="none" xmlns="http://www.w3.org/2000/svg">
<path d="M95 45H85V55H88.5C89.3281 55 90 55.5625 90 56.25V58.75C90 59.4375 89.3281 60 88.5 60H11.5C10.6719 60 10 59.4375 10 58.75V56.25C10 55.5625 10.6719 55 11.5 55H15V45H5C2.23438 45 0 47.2344 0 50V65C0 67.7656 2.23438 70 5 70H95C97.7656 70 100 67.7656 100 65V50C100 47.2344 97.7656 45 95 45ZM80 55V5.04688C80 2.25 77.7344 0 74.9531 0H25.0625C22.2656 0 20 2.26563 20 5.04688V55H80ZM33 26.5625L36.9844 22.6094C37.6406 21.9531 38.7031 21.9531 39.3594 22.625L45.8125 29.125L60.6875 14.375C61.3438 13.7188 62.4062 13.7188 63.0625 14.3906L67.0156 18.375C67.6719 19.0312 67.6719 20.0938 67 20.75L46.9531 40.625C46.2969 41.2812 45.2344 41.2812 44.5781 40.6094L33 28.9375C32.3281 28.2812 32.3438 27.2188 33 26.5625Z" fill="white"/>
</svg>
