<svg width="80" height="80" viewBox="0 0 80 80" fill="none" xmlns="http://www.w3.org/2000/svg">
<path d="M79.3327 17.0469C78.9827 15.636 77.2171 15.1578 76.189 16.1859L64.5702 27.8047L53.964 26.0375L52.1968 15.4313L63.8155 3.81251C64.8499 2.77814 64.3515 1.01564 62.9312 0.662513C55.528 -1.17186 47.3765 0.8047 41.5905 6.58908C35.3968 12.7828 33.6921 21.7609 36.2702 29.5891L2.92803 62.9313C-0.97666 66.836 -0.97666 73.1672 2.92803 77.0719C6.83271 80.9766 13.164 80.9766 17.0687 77.0719L50.3827 43.7578C58.214 46.3688 67.1749 44.6453 73.4093 38.411C79.2015 32.6188 81.1749 24.4547 79.3327 17.0469ZM9.9999 73.75C7.92959 73.75 6.2499 72.0703 6.2499 70C6.2499 67.9281 7.92959 66.25 9.9999 66.25C12.0702 66.25 13.7499 67.9281 13.7499 70C13.7499 72.0703 12.0702 73.75 9.9999 73.75Z" fill="white"/>
</svg>
