<svg width="80" height="72" viewBox="0 0 80 72" fill="none" xmlns="http://www.w3.org/2000/svg">
<path d="M75.8613 1.3466C75.0835 -0.389511 72.8613 -0.458955 71.9308 1.17993C67.6252 8.66605 59.9169 13.3327 51.1113 13.3327H40.0002C25.278 13.3327 13.3335 25.2772 13.3335 39.9994C13.3335 40.9716 13.4447 41.9022 13.5419 42.8466C22.403 36.4994 35.1947 31.1105 53.3335 31.1105C54.5558 31.1105 55.5558 32.1105 55.5558 33.3327C55.5558 34.5549 54.5558 35.5549 53.3335 35.5549C18.4169 35.5549 3.61132 56.9577 0.333547 64.9994C-0.58312 67.2633 0.500213 69.8466 2.7641 70.7772C5.04188 71.7216 7.62521 70.6244 8.56966 68.3744C8.77799 67.8744 11.4724 61.7216 18.5558 55.791C23.0558 61.8883 31.6113 67.7077 42.8474 66.5133C64.653 64.9299 80.0002 45.3744 80.0002 21.4299C80.0002 14.4577 78.5002 7.23549 75.8613 1.3466Z" fill="white"/>
</svg>
