<svg width="74" height="60" viewBox="0 0 74 60" fill="none" xmlns="http://www.w3.org/2000/svg">
<path d="M66.9687 0H7C3.3125 0 0.328125 2.98437 0.328125 6.67187V16.6562H7V6.67187H66.9687V53.3281H43.6562V60H67C70.6875 60 73.6719 57.0156 73.6719 53.3281V6.67187C73.6719 2.98437 70.6562 0 66.9687 0ZM0.328125 49.9375V59.9219H10.3125C10.3125 54.4062 5.84375 49.9375 0.328125 49.9375ZM0.328125 36.6562V43.2812C9.53125 43.2812 16.9844 50.7969 16.9844 60H23.6562C23.6719 47.125 13.2031 36.6719 0.328125 36.6562ZM30.3437 60H37.0156C36.9375 39.7656 20.5625 23.3906 0.328125 23.3438V29.9688C16.8906 29.9375 30.3281 43.4375 30.3437 60Z" fill="white"/>
</svg>
