<svg width="29" height="25" viewBox="0 0 29 25" fill="none" xmlns="http://www.w3.org/2000/svg">
<path d="M9.68911 22.6562C10.6489 22.6562 11.4271 21.9567 11.4271 21.0938C11.4271 20.2308 10.6489 19.5312 9.68911 19.5312C8.72927 19.5312 7.95117 20.2308 7.95117 21.0938C7.95117 21.9567 8.72927 22.6562 9.68911 22.6562Z" fill="white"/>
<path d="M20.986 22.6562C21.9458 22.6562 22.7239 21.9567 22.7239 21.0938C22.7239 20.2308 21.9458 19.5312 20.986 19.5312C20.0261 19.5312 19.248 20.2308 19.248 21.0938C19.248 21.9567 20.0261 22.6562 20.986 22.6562Z" fill="white"/>
<path d="M5.59485 7.03125H25.0815L22.2139 16.0547C22.1116 16.3822 21.8925 16.6704 21.5903 16.875C21.2881 17.0797 20.9195 17.1895 20.5411 17.1875H10.1352C9.75687 17.1895 9.38828 17.0797 9.08607 16.875C8.78386 16.6704 8.56476 16.3822 8.46245 16.0547L4.53036 3.69141C4.4784 3.52808 4.36864 3.38443 4.21772 3.28222C4.06679 3.18002 3.88293 3.12482 3.69398 3.125H1.86914" stroke="white" stroke-width="2" stroke-linecap="round" stroke-linejoin="round"/>
</svg>
