<svg width="21" height="21" viewBox="0 0 21 21" fill="none" xmlns="http://www.w3.org/2000/svg">
<path d="M7.0332 10.1879C7.83713 11.8481 9.17957 13.1871 10.8418 13.9868C10.9644 14.0448 11.1 14.0699 11.2353 14.0597C11.3706 14.0494 11.5008 14.0041 11.6133 13.9282L14.0547 12.2973C14.1625 12.2241 14.2872 12.1795 14.417 12.1676C14.5468 12.1556 14.6775 12.1767 14.7969 12.2289L19.3672 14.1918C19.5234 14.2568 19.6539 14.3714 19.7386 14.5179C19.8233 14.6643 19.8575 14.8346 19.8359 15.0024C19.6911 16.133 19.1392 17.1721 18.2836 17.9252C17.428 18.6783 16.3273 19.0939 15.1875 19.0942C11.6651 19.0942 8.28695 17.6949 5.79624 15.2042C3.30552 12.7135 1.90625 9.33533 1.90625 5.81293C1.90651 4.67308 2.32208 3.57238 3.07522 2.71679C3.82836 1.8612 4.86744 1.30935 5.99805 1.16449C6.16586 1.14294 6.3361 1.17714 6.48256 1.26184C6.62902 1.34654 6.74358 1.47704 6.80859 1.63324L8.77148 6.21332C8.82253 6.33085 8.84388 6.45912 8.83366 6.58685C8.82345 6.71457 8.78197 6.83782 8.71289 6.94574L7.08203 9.42621C7.00942 9.5384 6.96681 9.66734 6.95826 9.8007C6.94971 9.93406 6.97551 10.0674 7.0332 10.1879V10.1879Z" stroke="#FFD200" stroke-width="2" stroke-linecap="round" stroke-linejoin="round"/>
</svg>
