<svg width="25" height="25" viewBox="0 0 25 25" fill="none" xmlns="http://www.w3.org/2000/svg">
<path d="M8.59343 13.1739L17.3727 20.8985C17.4742 20.9883 17.5973 21.0502 17.7299 21.0781C17.8625 21.106 18.0001 21.0989 18.1291 21.0575C18.2581 21.0161 18.3742 20.9419 18.4659 20.8421C18.5575 20.7424 18.6217 20.6204 18.652 20.4884L22.3239 4.45321C22.3547 4.31512 22.3474 4.17126 22.3028 4.03698C22.2582 3.9027 22.178 3.78306 22.0707 3.69082C21.9634 3.59857 21.8331 3.5372 21.6937 3.51324C21.5542 3.48928 21.4109 3.50363 21.279 3.55478L3.25163 10.6349C2.52897 10.9181 2.62663 11.9727 3.38835 12.129L8.59343 13.1739Z" stroke="#FFD200" stroke-width="2" stroke-linecap="round" stroke-linejoin="round"/>
<path d="M8.59387 13.1738L21.8849 3.57422" stroke="#FFD200" stroke-width="2" stroke-linecap="round" stroke-linejoin="round"/>
<path d="M12.9786 17.0312L9.93176 20.0781C9.82306 20.1885 9.684 20.2641 9.53225 20.2952C9.3805 20.3264 9.22292 20.3117 9.07952 20.2531C8.93612 20.1945 8.81339 20.0946 8.72691 19.966C8.64044 19.8375 8.59413 19.6862 8.59387 19.5313V13.1738" stroke="#FFD200" stroke-width="2" stroke-linecap="round" stroke-linejoin="round"/>
</svg>
