<svg width="25" height="25" viewBox="0 0 25 25" fill="none" xmlns="http://www.w3.org/2000/svg">
<path d="M4.43386 17.2849C3.27066 15.3224 2.86379 13.0029 3.28963 10.7616C3.71546 8.52042 4.94472 6.5117 6.74663 5.11259C8.54854 3.71348 10.7992 3.02019 13.076 3.16288C15.3529 3.30557 17.4993 4.27442 19.1125 5.88756C20.7256 7.50069 21.6945 9.64716 21.8371 11.924C21.9798 14.2009 21.2866 16.4515 19.8874 18.2534C18.4883 20.0553 16.4796 21.2846 14.2384 21.7104C11.9972 22.1362 9.6776 21.7294 7.71511 20.5662V20.5662L4.47292 21.4841C4.34009 21.523 4.19925 21.5254 4.06516 21.4911C3.93108 21.4568 3.80869 21.3871 3.71083 21.2892C3.61297 21.1913 3.54323 21.069 3.50893 20.9349C3.47464 20.8008 3.47704 20.6599 3.51589 20.5271L4.43386 17.2849Z" stroke="#FFD200" stroke-width="2" stroke-linecap="round" stroke-linejoin="round"/>
<path d="M14.8533 17.9688C13.8253 17.9713 12.807 17.7708 11.8568 17.3786C10.9066 16.9864 10.0433 16.4103 9.31637 15.6834C8.5895 14.9565 8.01341 14.0932 7.62122 13.143C7.22902 12.1928 7.02845 11.1745 7.03103 10.1465C7.03361 9.423 7.32284 8.73001 7.83535 8.21932C8.34787 7.70864 9.04189 7.42189 9.76541 7.4219V7.4219C9.88478 7.42094 10.0022 7.45219 10.1053 7.51233C10.2084 7.57248 10.2934 7.65932 10.3513 7.76369L11.4939 9.75588C11.5619 9.87699 11.5967 10.0138 11.595 10.1527C11.5933 10.2916 11.5551 10.4275 11.4842 10.5469L10.5662 12.0801C11.0364 13.1261 11.8737 13.9634 12.9197 14.4336L14.4529 13.5156C14.5723 13.4447 14.7083 13.4065 14.8471 13.4048C14.986 13.4031 15.1228 13.4379 15.2439 13.5059L17.2361 14.6485C17.3405 14.7064 17.4273 14.7914 17.4875 14.8945C17.5476 14.9976 17.5789 15.115 17.5779 15.2344C17.5754 15.9571 17.2878 16.6497 16.7777 17.1616C16.2675 17.6736 15.576 17.9636 14.8533 17.9688V17.9688Z" stroke="#FFD200" stroke-width="2" stroke-linecap="round" stroke-linejoin="round"/>
</svg>
