<svg width="25" height="25" viewBox="0 0 25 25" fill="none" xmlns="http://www.w3.org/2000/svg">
<path d="M15.6251 12.5L10.9376 9.375V15.625L15.6251 12.5Z" stroke="#FFD200" stroke-width="2" stroke-linecap="round" stroke-linejoin="round"/>
<path d="M2.34387 12.5001C2.34387 15.4102 2.64661 17.1094 2.87122 17.9883C2.93315 18.2268 3.05026 18.4474 3.21311 18.6323C3.37595 18.8172 3.57997 18.9612 3.80872 19.0528C7.0802 20.3028 12.5001 20.2735 12.5001 20.2735C12.5001 20.2735 17.92 20.3028 21.1915 19.0528C21.4203 18.9612 21.6243 18.8172 21.7871 18.6323C21.95 18.4474 22.0671 18.2268 22.129 17.9883C22.3536 17.1094 22.6564 15.4102 22.6564 12.5001C22.6564 9.5899 22.3536 7.89068 22.129 7.01178C22.0671 6.7733 21.95 6.55272 21.7871 6.36782C21.6243 6.18292 21.4203 6.03889 21.1915 5.94732C17.92 4.69732 12.5001 4.72662 12.5001 4.72662C12.5001 4.72662 7.0802 4.69732 3.80872 5.94732C3.57997 6.03889 3.37595 6.18292 3.21311 6.36782C3.05026 6.55272 2.93315 6.7733 2.87122 7.01178C2.64661 7.89068 2.34387 9.5899 2.34387 12.5001Z" stroke="#FFD200" stroke-width="2" stroke-linecap="round" stroke-linejoin="round"/>
</svg>
